# xmcd
#
# Track frame offsets: 
#        150
#        33002
#        39625
#        60310
#        79375
#        112526
#        135975
#        137477
#        165836
#
# Disc length: 2401 seconds
#
# Revision: 0
# Processed by: cddbd v1.5.1PL0 Copyright (c) Steve Scherf et al.
# Submitted via: ExactAudioCopy v0.95b2
#
DISCID=5b095f09
DTITLE=Earl Thomas and Heine Andersen - La Casa Di Caffe Calabria (The C
DTITLE=offeehouse Show)
DYEAR=2004
DGENRE=Blues
TTITLE0=I Smell Trouble Medley (Look On Yonder Wall, Crossroad Blues)
TTITLE1=Earl Talks to the Audience About Brown Sugar
TTITLE2=Brown Sugar
TTITLE3=Stop Breaking Down
TTITLE4=The Fire Down Below
TTITLE5=Give Me One Reason
TTITLE6=Champaign
TTITLE7=Last Train To Paris
TTITLE8=Bonus Track: Brown Skinned Man
EXTD=
EXTT0=
EXTT1=
EXTT2=
EXTT3=
EXTT4=
EXTT5=
EXTT6=
EXTT7=
EXTT8=
PLAYORDER=
